<svg id="Layer_1" data-name="Layer 1" xmlns="http://www.w3.org/2000/svg" viewBox="0 0 70.87 51.11"><path d="M33.87,20.13l.1.08a4.66,4.66,0,0,0,7.45-3.72V4.71a1.76,1.76,0,0,0-3.52,0V16.46a1.14,1.14,0,0,1-1.92.86,1.13,1.13,0,0,1-.36-.83V4.71a1.76,1.76,0,0,0-3.51,0V16.46a1.16,1.16,0,0,1-1.06,1.17,1.15,1.15,0,0,1-1.22-1.14V4.71a1.76,1.76,0,0,0-3.51,0V16.49A4.65,4.65,0,0,0,31,21.14a4.59,4.59,0,0,0,2.79-.93Z" style="fill:#546a7b"/><path d="M56.69,20.13l.1.08a4.66,4.66,0,0,0,7.45-3.72V7.61a4.66,4.66,0,0,0-9.31,0v8.88a1.14,1.14,0,1,1-2.28,0V4.71a1.76,1.76,0,0,0-3.51,0V16.49a4.65,4.65,0,0,0,4.65,4.65,4.59,4.59,0,0,0,2.79-.93Zm2.9-2.5a1.14,1.14,0,0,1-1.14-1.14V7.61a1.14,1.14,0,1,1,2.28,0v8.88A1.15,1.15,0,0,1,59.59,17.63Z" style="fill:#546a7b"/><path d="M14.82,2.78a9.37,9.37,0,0,0-9.15,9.41v7.92a1,1,0,0,0,2.06,0V16.59a1,1,0,1,1,2.06,0v2.13a1,1,0,0,0,2.06,0V17.29a1,1,0,0,1,2.06,0V20.5a1,1,0,0,0,2.06,0V16.59a1,1,0,0,1,2.06,0v2.83a1,1,0,0,0,2.06,0V18a1,1,0,0,1,2.06,0v2.12a1,1,0,0,0,2.06,0V12.05A9.27,9.27,0,0,0,14.82,2.78ZM11.68,9.55a1,1,0,1,1,1-1A1,1,0,0,1,11.68,9.55Zm5.41,2.33a2.66,2.66,0,0,1-4.29,0,.64.64,0,0,1,.51-1,.67.67,0,0,1,.53.28,1.37,1.37,0,0,0,2.21,0,.64.64,0,1,1,1,.74ZM18.24,9.4a1,1,0,1,1,1-1A1,1,0,0,1,18.24,9.4Z" style="fill:#e98b38"/><path d="M45.28,8.39a1.76,1.76,0,0,0-1.76,1.76v9a1.76,1.76,0,0,0,3.51,0v-9A1.75,1.75,0,0,0,45.28,8.39Z" style="fill:#546a7b"/><circle cx="45.28" cy="4.71" r="1.76" style="fill:#e98b38"/><path d="M12.34,30.11l-.71-2.76-.69,2.76H10l-1.16-4h1l.71,2.9.76-2.9H12l.76,2.9.7-2.9h1l-1.14,4Z" style="fill:#546a7b"/><path d="M14.35,28.65a1.54,1.54,0,1,1,1.54,1.53A1.48,1.48,0,0,1,14.35,28.65Zm2.29,0a.75.75,0,1,0-.75.85A.77.77,0,0,0,16.64,28.65Z" style="fill:#546a7b"/><path d="M18,30.11V27.19h.77v.4a1.22,1.22,0,0,1,.93-.46v.75a.72.72,0,0,0-.22,0,1,1,0,0,0-.71.32v1.93Z" style="fill:#546a7b"/><path d="M22.17,30.11v-.37a1.14,1.14,0,0,1-.89.44c-.74,0-1.29-.56-1.29-1.53s.54-1.53,1.29-1.53a1.1,1.1,0,0,1,.89.45V26.09H23v4Zm0-2a.84.84,0,0,0-.66-.33.86.86,0,0,0,0,1.7.84.84,0,0,0,.66-.33Z" style="fill:#546a7b"/><path d="M24.47,31.21h-.76v-4h.76v.37a1.13,1.13,0,0,1,.9-.44c.75,0,1.29.56,1.29,1.53s-.54,1.53-1.29,1.53a1.14,1.14,0,0,1-.9-.45Zm.66-3.41a.89.89,0,0,0-.66.33v1a.89.89,0,0,0,.66.33.86.86,0,0,0,0-1.7Z" style="fill:#546a7b"/><path d="M27.23,30.11V27.19H28v.4a1.22,1.22,0,0,1,.93-.46v.75a.68.68,0,0,0-.21,0,1,1,0,0,0-.72.32v1.93Z" style="fill:#546a7b"/><path d="M30.72,27.12a1.46,1.46,0,0,1,1.46,1.61v.16H30a.79.79,0,0,0,.84.68,1.16,1.16,0,0,0,.77-.29l.34.49a1.75,1.75,0,0,1-1.2.41,1.53,1.53,0,0,1-.05-3.06ZM30,28.38h1.43a.68.68,0,0,0-.72-.65A.7.7,0,0,0,30,28.38Z" style="fill:#546a7b"/><path d="M32.82,29.19a1.64,1.64,0,0,0,1,.4c.33,0,.49-.12.49-.3s-.25-.28-.58-.34c-.5-.1-1.15-.22-1.15-.91,0-.49.43-.92,1.19-.92a1.81,1.81,0,0,1,1.17.4l-.3.52a1.23,1.23,0,0,0-.86-.33c-.28,0-.46.1-.46.27s.23.25.56.31c.5.1,1.17.23,1.17.95,0,.54-.46.94-1.26.94a2,2,0,0,1-1.31-.45Z" style="fill:#546a7b"/><path d="M35.69,29.19a1.67,1.67,0,0,0,1,.4c.33,0,.49-.12.49-.3S36.93,29,36.6,29c-.5-.1-1.14-.22-1.14-.91,0-.49.42-.92,1.19-.92a1.83,1.83,0,0,1,1.17.4l-.3.52a1.27,1.27,0,0,0-.86-.33c-.28,0-.46.1-.46.27s.23.25.55.31c.5.1,1.17.23,1.17.95,0,.54-.45.94-1.26.94a2,2,0,0,1-1.3-.45Z" style="fill:#546a7b"/><path d="M40.05,30.11v-4h.86v4Z" style="fill:#546a7b"/><path d="M43.65,30.11V28.35c0-.41-.21-.55-.54-.55a.82.82,0,0,0-.66.35v2h-.77V27.19h.77v.38a1.34,1.34,0,0,1,1-.45.84.84,0,0,1,.94.93v2.06Z" style="fill:#546a7b"/><path d="M45.33,29.38V27.86h-.49v-.67h.49V26.4h.77v.79h.59v.67H46.1v1.32c0,.18.09.32.26.32a.43.43,0,0,0,.27-.09l.16.58a1,1,0,0,1-.64.19A.73.73,0,0,1,45.33,29.38Z" style="fill:#546a7b"/><path d="M48.53,27.12A1.46,1.46,0,0,1,50,28.73v.16H47.83a.79.79,0,0,0,.84.68,1.16,1.16,0,0,0,.77-.29l.34.49a1.75,1.75,0,0,1-1.2.41,1.53,1.53,0,0,1,0-3.06Zm-.71,1.26h1.43a.68.68,0,0,0-.72-.65A.7.7,0,0,0,47.82,28.38Z" style="fill:#546a7b"/><path d="M50.55,30.11V27.19h.76v.4a1.25,1.25,0,0,1,.93-.46v.75a.65.65,0,0,0-.21,0,1,1,0,0,0-.72.32v1.93Z" style="fill:#546a7b"/><path d="M54.68,30.11V28.35c0-.41-.21-.55-.53-.55a.83.83,0,0,0-.67.35v2h-.76V27.19h.76v.38a1.36,1.36,0,0,1,1-.45.85.85,0,0,1,1,.93v2.06Z" style="fill:#546a7b"/><path d="M58,30.11V29.8a1.21,1.21,0,0,1-.93.38,1,1,0,0,1-1-1,.92.92,0,0,1,1-.92,1.21,1.21,0,0,1,.93.35v-.4c0-.3-.26-.49-.64-.49a1.19,1.19,0,0,0-.85.34l-.29-.51a1.91,1.91,0,0,1,1.27-.46c.66,0,1.27.27,1.27,1.11v1.88ZM58,29a.8.8,0,0,0-.62-.25c-.3,0-.55.16-.55.44s.25.43.55.43a.77.77,0,0,0,.62-.25Z" style="fill:#546a7b"/><path d="M59.48,30.11v-4h.77v4Z" style="fill:#546a7b"/><path d="M16.08,37.34v-4h.85v3.27h1.7v.75Z" style="fill:#546a7b"/><path d="M19.13,33.54a.46.46,0,1,1,.46.46A.46.46,0,0,1,19.13,33.54Zm.08,3.8V34.43H20v2.91Z" style="fill:#546a7b"/><path d="M22.7,37.34V35.58a.47.47,0,0,0-.54-.54.84.84,0,0,0-.66.34v2h-.76V34.43h.76v.38a1.34,1.34,0,0,1,1-.45.85.85,0,0,1,.95.93v2.05Z" style="fill:#546a7b"/><path d="M26.11,37.34l-.77-1.12-.35.37v.75h-.76v-4H25v2.41l1.11-1.3H27l-1.16,1.32,1.19,1.59Z" style="fill:#546a7b"/><path d="M30.92,33.25a2.08,2.08,0,1,1-2.1,2.08A2,2,0,0,1,30.92,33.25Zm0,.76a1.32,1.32,0,1,0,1.22,1.32A1.22,1.22,0,0,0,30.92,34Z" style="fill:#546a7b"/><path d="M34.37,38.45h-.76v-4h.76v.37a1.13,1.13,0,0,1,.9-.44c.75,0,1.29.55,1.29,1.52s-.54,1.53-1.29,1.53a1.13,1.13,0,0,1-.9-.44ZM35,35a.85.85,0,0,0-.66.33v1a.89.89,0,0,0,.66.33A.85.85,0,0,0,35,35Z" style="fill:#546a7b"/><path d="M37.29,36.62V35.1H36.8v-.67h.49v-.8h.77v.8h.59v.67h-.59v1.31c0,.18.09.32.26.32a.43.43,0,0,0,.27-.08l.16.58a1,1,0,0,1-.64.18A.72.72,0,0,1,37.29,36.62Z" style="fill:#546a7b"/><path d="M39.09,33.54a.46.46,0,0,1,.46-.45.46.46,0,1,1,0,.91A.47.47,0,0,1,39.09,33.54Zm.08,3.8V34.43h.77v2.91Z" style="fill:#546a7b"/><path d="M44.31,37.34V35.5a.4.4,0,0,0-.44-.46.77.77,0,0,0-.6.34v2H42.5V35.5c0-.27-.12-.46-.43-.46a.8.8,0,0,0-.61.34v2H40.7V34.43h.76v.38a1.27,1.27,0,0,1,1-.45.77.77,0,0,1,.8.53,1.23,1.23,0,0,1,1-.53.78.78,0,0,1,.86.88v2.1Z" style="fill:#546a7b"/><path d="M45.76,33.54a.46.46,0,1,1,.45.46A.45.45,0,0,1,45.76,33.54Zm.08,3.8V34.43h.76v2.91Z" style="fill:#546a7b"/><path d="M47.44,36.42a1.65,1.65,0,0,0,1,.4c.33,0,.48-.11.48-.29s-.25-.28-.58-.35c-.5-.09-1.15-.21-1.15-.91,0-.49.43-.91,1.2-.91a1.85,1.85,0,0,1,1.17.4l-.31.52a1.19,1.19,0,0,0-.86-.34c-.27,0-.46.1-.46.27s.23.25.56.32c.5.09,1.17.23,1.17.95,0,.53-.45.93-1.26.93a2,2,0,0,1-1.3-.45Z" style="fill:#546a7b"/><path d="M51.56,34.36A1.46,1.46,0,0,1,53,36v.17H50.85a.78.78,0,0,0,.84.67,1.16,1.16,0,0,0,.78-.29l.33.5a1.78,1.78,0,0,1-1.2.4,1.53,1.53,0,1,1,0-3Zm-.72,1.25h1.43a.66.66,0,0,0-.71-.64A.69.69,0,0,0,50.84,35.61Z" style="fill:#546a7b"/><path d="M53.57,37.34V34.43h.77v.4a1.23,1.23,0,0,1,.92-.47v.75l-.21,0a.94.94,0,0,0-.71.33v1.92Z" style="fill:#546a7b"/><rect x="7.84" y="41.49" width="57.7" height="8.42" style="fill:#e98b38"/><path d="M10.09,47.3V43.36h1.55a2,2,0,1,1,0,3.94Zm.84-.74h.71a1.18,1.18,0,0,0,1.24-1.22,1.16,1.16,0,0,0-1.24-1.24h-.71Z" style="fill:#fff"/><path d="M14.13,45.87a1.51,1.51,0,1,1,1.5,1.5A1.44,1.44,0,0,1,14.13,45.87Zm2.23,0a.73.73,0,1,0-1.45,0,.73.73,0,1,0,1.45,0Z" style="fill:#fff"/><path d="M20.2,47.3l-.6-1.94L19,47.3h-.81l-.86-2.85h.77l.54,1.92.62-1.92h.67l.63,1.92.53-1.92h.78L21,47.3Z" style="fill:#fff"/><path d="M24.16,47.3V45.58c0-.4-.21-.53-.52-.53a.8.8,0,0,0-.65.33V47.3h-.75V44.45H23v.37a1.29,1.29,0,0,1,1-.44.83.83,0,0,1,.93.91v2Z" style="fill:#fff"/><path d="M25.65,47.3V43.36h.75V47.3Z" style="fill:#fff"/><path d="M27,45.87a1.51,1.51,0,1,1,1.51,1.5A1.44,1.44,0,0,1,27,45.87Zm2.24,0a.73.73,0,1,0-1.46,0,.74.74,0,1,0,1.46,0Z" style="fill:#fff"/><path d="M32.25,47.3V47a1.19,1.19,0,0,1-.91.36,1,1,0,0,1-1-.94.9.9,0,0,1,1-.91,1.17,1.17,0,0,1,.91.35v-.4c0-.29-.25-.48-.63-.48a1.21,1.21,0,0,0-.83.34l-.28-.5a1.83,1.83,0,0,1,1.24-.45c.65,0,1.25.26,1.25,1.08V47.3Zm0-1a.77.77,0,0,0-.6-.24c-.3,0-.54.15-.54.43s.24.42.54.42a.78.78,0,0,0,.6-.25Z" style="fill:#fff"/><path d="M35.7,47.3v-.36a1.11,1.11,0,0,1-.88.43c-.72,0-1.26-.54-1.26-1.49s.54-1.5,1.26-1.5a1.09,1.09,0,0,1,.88.44V43.36h.76V47.3Zm0-1.93a.81.81,0,0,0-.65-.32.84.84,0,0,0,0,1.66.82.82,0,0,0,.65-.33Z" style="fill:#fff"/><path d="M39.63,45.11V47.3h-.75V45.11H38.4v-.66h.48V44.3a.92.92,0,0,1,1-1,1.2,1.2,0,0,1,.54.11l-.15.53A.47.47,0,0,0,40,43.9c-.22,0-.36.14-.36.41v.14h.58v.66Z" style="fill:#fff"/><path d="M40.46,45.87a1.51,1.51,0,1,1,1.5,1.5A1.44,1.44,0,0,1,40.46,45.87Zm2.24,0a.75.75,0,0,0-.74-.82.74.74,0,0,0-.72.82.76.76,0,0,0,.72.84A.76.76,0,0,0,42.7,45.87Z" style="fill:#fff"/><path d="M44,47.3V44.45h.75v.39a1.22,1.22,0,0,1,.91-.45v.73l-.21,0a1,1,0,0,0-.7.32V47.3Z" style="fill:#fff"/><path d="M47.68,47.3V43.36h2.79v.72H48.52v.86h1.91v.72H48.52V47.3Z" style="fill:#fff"/><path d="M53.28,47.3l-.77-1.41h-.62V47.3h-.84V43.36H52.9a1.23,1.23,0,0,1,1.32,1.27,1.13,1.13,0,0,1-.86,1.17l.88,1.5Zm-.51-3.22h-.88v1.09h.88a.54.54,0,0,0,.59-.54A.55.55,0,0,0,52.77,44.08Z" style="fill:#fff"/><path d="M54.85,47.3V43.36h2.79v.72h-2v.86h1.9v.72h-1.9v.92h2v.72Z" style="fill:#fff"/><path d="M58.29,47.3V43.36h2.79v.72H59.13v.86H61v.72H59.13v.92h1.95v.72Z" style="fill:#fff"/></svg>